<svg xmlns="http://www.w3.org/2000/svg" fill="none" viewBox="0 0 474 108">
  <path fill="#fff" d="M45.037 3.616A6.309 6.309 0 0147.382.977 6.38 6.38 0 0150.788 0h27.17c2.248 0 4.306 1.15 5.442 3.029l57.7 94.64a6.097 6.097 0 01.071 6.246 6.345 6.345 0 01-2.333 2.305 6.412 6.412 0 01-3.182.841h-28.4a6.416 6.416 0 01-4.496-1.808 74.344 74.344 0 00-38.222-19.182c-16.093-2.559-35.05.94-53.723 19.182a6.454 6.454 0 01-8.094.704 6.15 6.15 0 01-2.496-3.461 6.105 6.105 0 01.366-4.24l44.422-94.64h.024zM61.84 12.42l49.061 82.197h13.585L74.36 12.443H61.84v-.023zm25.773 67.829L51.474 19.65 22.601 81.117a69.517 69.517 0 0143.972-7.278c7.574 1.174 14.674 3.522 21.04 6.41zM200.776 34.952L222.088 86H210.28l-4.608-10.944H184L179.464 86h-11.88l21.312-51.048h11.88zm.792 30.168l-6.696-16.056-6.696 16.056h13.392zm35.12-9.864a14.331 14.331 0 011.656-2.16 9.442 9.442 0 012.232-1.872c.864-.576 1.848-1.032 2.952-1.368 1.104-.336 2.352-.504 3.744-.504 1.632 0 3.528.288 5.688.864l-.936 8.856a18.8 18.8 0 01-1.584-.36 11.441 11.441 0 00-1.44-.216 8.112 8.112 0 00-1.44-.144c-1.536 0-2.976.216-4.32.648-1.296.432-2.424 1.032-3.384 1.8a8.719 8.719 0 00-2.304 2.808 7.1 7.1 0 00-.864 3.456V86h-9.936V50.288h9l.936 4.968zm39.68 9.864L291.416 86h-11.88l-9.432-14.256-3.528 3.816V86h-9.936V33.44h9.936V62.6l11.592-12.312h12.096L276.368 65.12zm55.115-14.832V86h-8.568l-1.008-3.816c-1.392 1.872-3.072 3.12-5.04 3.744-1.92.624-3.936.936-6.048.936-2.544 0-4.896-.48-7.056-1.44a18.502 18.502 0 01-5.544-4.032c-1.584-1.728-2.832-3.72-3.744-5.976-.864-2.304-1.296-4.752-1.296-7.344 0-2.592.432-5.016 1.296-7.272.912-2.304 2.16-4.296 3.744-5.976a16.988 16.988 0 015.544-4.032c2.16-1.008 4.512-1.512 7.056-1.512 2.304 0 4.416.36 6.336 1.08 1.92.72 3.504 1.872 4.752 3.456l1.008-3.528h8.568zm-9.936 17.928c0-1.872-.264-3.432-.792-4.68-.48-1.296-1.152-2.328-2.016-3.096a6.787 6.787 0 00-2.952-1.728c-1.104-.384-2.304-.576-3.6-.576a8.71 8.71 0 00-3.672.792 9.96 9.96 0 00-2.952 2.16c-.864.864-1.536 1.92-2.016 3.168-.48 1.2-.72 2.472-.72 3.816 0 1.392.24 2.688.72 3.888a9.91 9.91 0 002.016 3.168c.864.864 1.848 1.56 2.952 2.088a8.71 8.71 0 003.672.792c2.592 0 4.776-.792 6.552-2.376 1.824-1.632 2.76-4.104 2.808-7.416zM373.92 33.44V86h-8.496l-1.44-3.096c-1.104 1.152-2.64 2.112-4.608 2.88-1.92.72-3.936 1.08-6.048 1.08-2.544 0-4.896-.48-7.056-1.44-2.16-1.008-4.032-2.352-5.616-4.032-1.536-1.728-2.76-3.72-3.672-5.976-.864-2.304-1.296-4.752-1.296-7.344 0-2.592.432-5.016 1.296-7.272.912-2.304 2.136-4.296 3.672-5.976a16.78 16.78 0 015.616-4.032c2.16-1.008 4.512-1.512 7.056-1.512 2.256 0 4.248.264 5.976.792a11.673 11.673 0 014.68 2.664V33.44h9.936zm-9.936 34.776c0-1.872-.24-3.432-.72-4.68-.48-1.296-1.152-2.328-2.016-3.096a7.33 7.33 0 00-3.024-1.728c-1.104-.384-2.304-.576-3.6-.576a8.71 8.71 0 00-3.672.792 9.96 9.96 0 00-2.952 2.16c-.816.864-1.464 1.92-1.944 3.168-.48 1.2-.72 2.472-.72 3.816 0 1.392.24 2.688.72 3.888.48 1.2 1.128 2.256 1.944 3.168.864.864 1.848 1.56 2.952 2.088a8.71 8.71 0 003.672.792c2.592 0 4.776-.792 6.552-2.376 1.824-1.632 2.76-4.104 2.808-7.416zM391.188 86h-9.936V50.288h9.936V86zm-4.968-40.608c-1.536 0-2.832-.528-3.888-1.584s-1.584-2.352-1.584-3.888.528-2.832 1.584-3.888c1.056-1.104 2.352-1.656 3.888-1.656s2.832.552 3.888 1.656c1.056 1.056 1.584 2.352 1.584 3.888s-.528 2.832-1.584 3.888-2.352 1.584-3.888 1.584zm32.179 19.728L433.447 86h-11.88l-9.432-14.256-3.528 3.816V86h-9.936V33.44h9.936V62.6l11.592-12.312h12.096L418.399 65.12zm36.37-15.84c2.544 0 4.944.504 7.2 1.512a17.945 17.945 0 015.904 4.032c1.68 1.68 3 3.672 3.96 5.976 1.008 2.256 1.512 4.68 1.512 7.272 0 2.592-.504 5.04-1.512 7.344a19.376 19.376 0 01-3.96 5.976c-1.68 1.68-3.648 3.024-5.904 4.032-2.256.96-4.656 1.44-7.2 1.44-2.592 0-5.016-.48-7.272-1.44-2.256-1.008-4.224-2.352-5.904-4.032a20.482 20.482 0 01-4.032-5.976c-.96-2.304-1.44-4.752-1.44-7.344 0-2.592.48-5.016 1.44-7.272 1.008-2.304 2.352-4.296 4.032-5.976a17.945 17.945 0 015.904-4.032c2.256-1.008 4.68-1.512 7.272-1.512zm0 28.872c1.2 0 2.304-.24 3.312-.72a8.602 8.602 0 002.736-1.944 8.908 8.908 0 001.872-3.024c.48-1.2.72-2.52.72-3.96s-.24-2.784-.72-4.032c-.432-1.248-1.056-2.328-1.872-3.24A8.138 8.138 0 00458.081 59a6.56 6.56 0 00-3.312-.864 6.96 6.96 0 00-3.384.864c-1.056.528-1.992 1.272-2.808 2.232-.768.912-1.392 1.992-1.872 3.24-.432 1.248-.648 2.592-.648 4.032s.216 2.76.648 3.96a10.705 10.705 0 001.872 3.024 9.494 9.494 0 002.808 1.944c1.056.48 2.184.72 3.384.72z"/>
</svg>
