<svg width="120" height="123" fill="none" xmlns="http://www.w3.org/2000/svg"><path d="M59.85 1.15C27.35 1.15 0 27.5 0 60v60.94l59.84-.06c32.5 0 58.84-27.36 58.84-59.85 0-32.5-26.37-59.88-58.83-59.88z" fill="#231F20"/><path d="M60.43 23.93a36.49 36.49 0 00-32.07 53.85l-6.6 21.23 23.7-5.35a36.47 36.47 0 1015-69.73h-.03z" fill="#FFF9AE"/><path d="M89.37 38.22a36.46 36.46 0 01-43.9 55.38l-23.7 5.42 24.12-2.85a36.46 36.46 0 0043.48-57.95z" fill="#00AEEF"/><path d="M82.65 31.49a36.46 36.46 0 01-37.88 59.66l-23 7.87 23.7-5.36a36.46 36.46 0 0037.18-62.17z" fill="#00A94F"/><path d="M30.54 78.59A36.47 36.47 0 0189.4 38.2a36.47 36.47 0 00-61.03 39.58l-6.6 21.23 8.78-20.42z" fill="#F15D22"/><path d="M28.36 77.78a36.47 36.47 0 0154.29-46.3 36.47 36.47 0 00-56.54 45.74l-4.34 21.8 6.6-21.24z" fill="#E31B23"/></svg>
