<svg width="120" height="93" fill="none" xmlns="http://www.w3.org/2000/svg"><g clip-path="url(#clip0)"><path d="M101.58 8.28A98.96 98.96 0 0077.16.7a.37.37 0 00-.4.19 68.94 68.94 0 00-3.03 6.25 91.36 91.36 0 00-27.44 0A63.24 63.24 0 0043.2.89a.39.39 0 00-.39-.19 98.68 98.68 0 00-24.43 7.58.35.35 0 00-.16.14C2.67 31.66-1.59 54.32.5 76.72c0 .1.07.21.15.28a99.5 99.5 0 0029.97 15.15c.15.04.32-.01.42-.14a71.12 71.12 0 006.13-9.97c.1-.2 0-.45-.21-.53a65.54 65.54 0 01-9.36-4.46.38.38 0 01-.04-.64 51.3 51.3 0 001.86-1.46c.1-.09.26-.1.39-.05 19.64 8.97 40.9 8.97 60.3 0a.37.37 0 01.4.05c.6.5 1.23.99 1.86 1.46.22.16.2.5-.03.64a61.5 61.5 0 01-9.37 4.45.38.38 0 00-.2.54A79.85 79.85 0 0088.89 92c.1.14.27.2.43.15a99.18 99.18 0 0030-15.15.38.38 0 00.16-.28c2.5-25.88-4.19-48.37-17.74-68.3a.3.3 0 00-.16-.14zM40.1 63.08c-5.91 0-10.78-5.42-10.78-12.09s4.77-12.1 10.78-12.1c6.05 0 10.88 5.48 10.78 12.1 0 6.67-4.77 12.1-10.78 12.1zm39.87 0c-5.9 0-10.78-5.42-10.78-12.09s4.78-12.1 10.78-12.1c6.06 0 10.88 5.48 10.79 12.1 0 6.67-4.73 12.1-10.79 12.1z" fill="#5865F2"/></g><defs><clipPath id="clip0"><path fill="#fff" d="M0 0h120v92.96H0z"/></clipPath></defs></svg>
