<svg width="120" height="99" fill="none" xmlns="http://www.w3.org/2000/svg"><path d="M107.4 24.82c.07 1.05.07 2.1.07 3.16 0 32.29-24.58 69.52-69.53 69.52v-.01A69.18 69.18 0 01.48 86.53 49.07 49.07 0 0036.64 76.4a24.47 24.47 0 01-22.82-16.97c3.66.71 7.44.57 11.03-.42a24.44 24.44 0 01-19.6-23.95v-.3c3.4 1.88 7.2 2.93 11.1 3.05A24.47 24.47 0 018.77 5.18a69.35 69.35 0 0050.36 25.53 24.45 24.45 0 0141.64-22.29A49.03 49.03 0 00116.3 2.5a24.53 24.53 0 01-10.74 13.52 48.6 48.6 0 0014.03-3.85 49.64 49.64 0 01-12.2 12.66z" fill="#1D9BF0"/></svg>
